<svg width="27" height="28" viewBox="0 0 27 28" fill="none" xmlns="http://www.w3.org/2000/svg">
<path d="M5.65116 14C5.65116 13.09 5.80186 12.2182 6.06558 11.4036L1.41907 7.80182C0.508605 9.66636 0 11.7664 0 14C0 16.2273 0.508605 18.3336 1.41279 20.1982L6.0593 16.59C5.79558 15.7755 5.65116 14.9036 5.65116 14Z" fill="#FBBC05"/>
<path d="M13.814 5.72727C15.7605 5.72727 17.5186 6.42727 18.9 7.57273L22.9186 3.5C20.4698 1.33636 17.3302 0 13.814 0C8.35744 0 3.6607 3.16909 1.41907 7.79546L6.06558 11.3973C7.1393 8.10091 10.1909 5.72727 13.814 5.72727Z" fill="#EA4335"/>
<path d="M13.8139 22.2727C10.1909 22.2727 7.1393 19.8991 6.06558 16.5964L1.41907 20.1982C3.6607 24.8309 8.35744 28 13.8139 28C17.1858 28 20.4007 26.7846 22.8119 24.5127L18.3977 21.0509C17.1544 21.8464 15.5909 22.2727 13.8139 22.2727Z" fill="#34A853"/>
<path d="M6.05935 16.59L1.41284 20.1982C1.41284 20.1982 1.41284 20.1982 1.41284 20.2045L6.05935 16.6027C6.06563 16.5964 6.05935 16.59 6.05935 16.59Z" fill="#34A853"/>
<path d="M13.814 11.4545V16.8636H21.2233C20.8528 18.7091 19.8419 20.1282 18.404 21.0509L22.8182 24.5127C25.3486 22.12 27 18.5627 27 14C27 13.1727 26.8744 12.2818 26.6861 11.4545H13.814Z" fill="#4285F4"/>
</svg>
