<svg width="19" height="25" viewBox="0 0 19 25" fill="none" xmlns="http://www.w3.org/2000/svg">
<path d="M12.1079 0C12.3644 0.187594 12.4909 0.450225 12.5917 0.721789C12.9875 1.79197 12.7255 2.78175 12.1775 3.73044C11.5471 4.82384 10.6327 5.67069 9.64309 6.44608C9.00535 6.94454 8.39328 7.46981 7.9553 8.1505C7.25159 9.24569 7.35971 10.189 8.01027 11.2663C8.43726 11.9721 8.98336 12.5992 9.38103 13.3209C9.42501 13.3996 9.49098 13.4692 9.49282 13.5746C9.29123 13.521 9.18311 13.3603 9.0475 13.237C8.29432 12.5509 7.55213 11.8541 6.93639 11.043C6.59004 10.5857 6.30049 10.0961 6.16855 9.53691C5.98346 8.74544 6.26751 8.08261 6.78429 7.48231C7.50998 6.64261 8.40794 5.99764 9.2839 5.32409C10.0646 4.722 10.8379 4.10741 11.4317 3.31416C12.0969 2.42621 12.3534 1.44001 12.161 0.350175C12.1409 0.232259 12.1262 0.116129 12.1079 0Z" fill="white"/>
<path d="M4.07563 21.2695C3.33345 21.3142 2.67556 21.4786 2.05615 21.7805C2.025 21.7948 1.99201 21.8073 1.96269 21.8252C1.82891 21.9056 1.66765 21.9806 1.67131 22.1521C1.67315 22.3379 1.85457 22.379 1.99934 22.4308C2.83499 22.7364 3.70912 22.8561 4.59058 22.9382C6.91794 23.1544 9.24712 23.1455 11.5781 23.0115C12.8426 22.9382 14.0997 22.8275 15.3496 22.6292C15.8535 22.5488 16.3538 22.4451 16.8339 22.27C16.9384 22.2325 17.0428 22.1879 17.1418 22.1343C17.4955 21.9431 17.567 21.7859 17.4753 21.4214C17.884 21.5322 17.9939 21.8395 17.7191 22.1271C17.3745 22.4862 16.9109 22.6452 16.4528 22.7971C15.1077 23.242 13.7149 23.4528 12.3075 23.6029C10.1817 23.8298 8.04863 23.853 5.91736 23.7404C4.26439 23.6529 2.61875 23.4849 0.987769 23.1937C0.740373 23.1491 0.496642 23.0794 0.278567 22.9525C-0.0586242 22.7578 -0.0879451 22.5291 0.179609 22.254C0.472819 21.952 0.846661 21.7734 1.23333 21.6197C1.98468 21.3214 2.75436 21.1034 3.57718 21.1123C3.74211 21.1123 3.90337 21.1195 4.07563 21.2695Z" fill="#CDCFD0"/>
<path d="M15.1646 5.05969C14.3546 5.57424 13.5446 6.05662 12.7914 6.6194C12.216 7.04997 11.6424 7.48591 11.2686 8.12194C10.9369 8.68829 10.9919 9.22963 11.2869 9.78348C11.5306 10.2444 11.899 10.6214 12.1647 11.0663C12.5495 11.7094 12.5514 12.3598 12.1537 13.003C11.8752 13.4532 11.4775 13.7908 11.0597 14.1089C11.001 14.1535 10.9241 14.2071 10.8489 14.1553C10.783 14.1106 10.8379 14.0445 10.8673 13.9981C11.4207 13.1352 11.1861 12.4009 10.5411 11.6773C9.96564 11.0323 9.56064 10.2909 9.5808 9.38507C9.60096 8.49534 10.0573 7.82358 10.6932 7.25901C11.8275 6.25136 13.1891 5.64213 14.6405 5.20441C14.734 5.17582 14.8073 5.1115 14.8916 5.08113C14.974 5.05076 15.073 5.06505 15.1646 5.05969Z" fill="white"/>
<path d="M14.8475 14.6823C14.1951 15.0843 13.5207 15.3684 12.7621 15.4881C11.2007 15.7329 9.63571 15.8669 8.05421 15.908C6.51669 15.9473 4.9865 15.8883 3.46547 15.6721C3.06598 15.6149 2.65915 15.5417 2.3018 15.3327C1.99209 15.1522 1.98843 14.9378 2.30546 14.7627C3.0953 14.3268 3.94744 14.0445 4.8344 13.8659C5.24123 13.7837 5.65172 13.7194 6.06954 13.6961C6.18866 13.689 6.30961 13.6747 6.49103 13.7336C6.07871 13.8516 5.72136 13.9516 5.36401 14.057C4.96451 14.1749 4.57234 14.3089 4.21133 14.5126C4.09404 14.5787 3.94377 14.6484 3.95843 14.8056C3.97309 14.9646 4.13253 14.9932 4.2663 15.0325C4.96451 15.2415 5.68654 15.2505 6.40307 15.2701C8.12018 15.3184 9.83546 15.229 11.5452 15.07C12.6045 14.9718 13.6637 14.8592 14.7064 14.6377C14.7467 14.6287 14.7925 14.6198 14.8475 14.6823Z" fill="#CDCFD0"/>
<path d="M5.98706 19.3454C5.8093 19.751 5.86611 19.8599 6.33342 19.9528C6.97115 20.0797 7.61804 20.1226 8.2686 20.1565C9.47992 20.219 10.6729 20.0976 11.8568 19.8671C12.051 19.8296 12.2178 19.8474 12.3992 19.9475C12.7071 20.119 13.0351 20.253 13.3558 20.4031C13.4089 20.4281 13.4914 20.4281 13.4877 20.5031C13.4841 20.5728 13.4071 20.5835 13.3521 20.6032C12.3955 20.9676 11.4041 21.2017 10.3834 21.3089C9.19588 21.4339 8.01387 21.4197 6.84104 21.1802C6.30593 21.0713 5.77632 20.9444 5.30718 20.6532C5.19539 20.5835 5.09644 20.5031 5.01214 20.4084C4.83621 20.2101 4.83438 20.0082 5.02313 19.8206C5.28336 19.5634 5.61688 19.4365 5.98706 19.3454Z" fill="#CDCFD0"/>
<path d="M5.40595 16.6369C5.3803 16.6691 5.35831 16.7012 5.33082 16.7316C5.07976 17.0264 5.15672 17.2836 5.5379 17.398C5.88792 17.5034 6.2526 17.5338 6.61361 17.557C7.59037 17.6177 8.56529 17.6964 9.54571 17.6231C10.5829 17.5463 11.6128 17.4373 12.6317 17.2354C12.8388 17.1943 13.0093 17.1943 13.1778 17.3498C13.3978 17.5534 13.6836 17.6624 13.9823 17.8053C13.7496 17.9733 13.493 17.9894 13.2603 18.043C11.9958 18.3377 10.7112 18.5057 9.41193 18.5807C8.11448 18.654 6.83352 18.5736 5.56355 18.3252C5.1384 18.2413 4.72057 18.1234 4.36322 17.8679C4.04619 17.641 4.0242 17.3944 4.30642 17.1318C4.60696 16.8513 4.98813 16.7227 5.3638 16.5851C5.3803 16.6012 5.39312 16.619 5.40595 16.6369Z" fill="#CDCFD0"/>
<path d="M18.9872 22.6828C18.9744 22.9579 18.8333 23.1402 18.6738 23.3045C18.256 23.7351 17.7117 23.9602 17.1528 24.1442C15.98 24.5284 14.7632 24.6981 13.5372 24.8249C11.6166 25.0233 9.69245 25.0286 7.76643 24.9607C6.42683 24.9125 5.08722 24.816 3.79344 24.4283C3.69448 24.3979 3.59735 24.3694 3.52222 24.2943C3.54604 24.2068 3.61751 24.2264 3.67065 24.2372C4.5906 24.4194 5.52337 24.4712 6.45615 24.523C7.61799 24.5873 8.77984 24.6034 9.94168 24.5677C12.0491 24.4998 14.1437 24.3086 16.2035 23.8423C16.9622 23.6708 17.7099 23.4546 18.4026 23.0901C18.606 22.983 18.7765 22.8293 18.9872 22.6828Z" fill="#CDCFD0"/>
<path d="M14.9609 18.3449C15.0086 18.2091 15.1534 18.1877 15.2578 18.1323C15.9908 17.741 16.6872 17.2979 17.2461 16.6833C17.62 16.2724 17.9077 15.824 17.9132 15.2398C17.9224 14.2536 16.9034 13.689 16.1503 13.7908C15.9578 13.8176 15.7691 13.8676 15.5712 13.9087C15.562 13.7658 15.6646 13.7265 15.7434 13.6908C16.5314 13.3388 17.7061 13.3192 18.4648 14.0445C19.1318 14.6841 19.1795 15.6024 18.5857 16.3939C18.0048 17.1675 17.182 17.6106 16.3005 17.9626C15.9175 18.1162 15.5144 18.227 15.1204 18.3556C15.0727 18.3717 15.0214 18.3949 14.9609 18.3449Z" fill="#CDCFD0"/>
</svg>
