<svg width="27" height="27" viewBox="0 0 27 27" fill="none" xmlns="http://www.w3.org/2000/svg">
<path d="M0 0C0 8.99931 0 18.0007 0 27C8.99931 27 18.0007 27 27 27C27 18.0007 27 8.99931 27 0C18.0007 0 8.99931 0 0 0ZM14.7981 18.6051C14.7918 19.6207 14.823 20.6425 14.715 21.6498C14.4948 23.6998 13.1345 24.8525 11.0305 24.8234C9.32123 24.7985 7.96292 24.1442 7.14669 22.4515C7.857 22.0216 8.52785 21.6145 9.23192 21.1888C9.38977 21.4214 9.48946 21.6519 9.65977 21.8056C9.91731 22.0424 10.1977 22.3311 10.5134 22.4121C11.5768 22.6821 12.1749 22.1628 12.1812 21.0102C12.1915 18.7525 12.1853 16.4949 12.1853 14.2373C12.1853 13.6205 12.1853 13.0015 12.1853 12.3016C12.9974 12.3016 13.7658 12.2829 14.5322 12.3245C14.6298 12.3307 14.7877 12.6443 14.7898 12.8146C14.8085 14.7441 14.8085 16.6735 14.7981 18.6051ZM24.9168 21.6768C24.7486 23.1909 23.8472 24.1235 22.4142 24.5742C20.2438 25.2575 17.8034 24.5742 16.5261 22.9126C16.362 22.6987 16.2332 22.4578 16.0588 22.1857C16.7836 21.7662 17.4628 21.3715 18.1523 20.9707C18.3164 21.1825 18.4493 21.3632 18.5926 21.5315C19.3216 22.3975 20.2562 22.6572 21.3342 22.4058C21.8285 22.2895 22.2231 22.0029 22.3124 21.4588C22.4017 20.9208 22.1649 20.5013 21.7038 20.25C21.1618 19.9551 20.5948 19.7058 20.0319 19.4462C19.0911 19.0122 18.1357 18.5947 17.5085 17.7162C16.713 16.6008 16.6029 15.3838 17.1367 14.1438C17.6746 12.8977 18.738 12.3224 20.0319 12.1978C21.6374 12.042 23.0455 12.4366 23.9885 13.8801C24.0528 13.9798 24.1006 14.0898 24.1837 14.2518C23.5274 14.6735 22.8815 15.0868 22.2085 15.5188C21.8326 14.9954 21.4795 14.5115 20.7921 14.4658C20.1212 14.4201 19.6518 14.6361 19.4732 15.1283C19.2697 15.6912 19.4628 16.2187 20.0797 16.5531C20.7132 16.8958 21.3902 17.1575 22.0362 17.4794C22.4972 17.7099 22.9542 17.955 23.382 18.2395C24.6115 19.0558 25.0747 20.2542 24.9168 21.6768Z" fill="white"/>
</svg>
